<svg width="1284" height="282" viewBox="0 0 1284 282" fill="none" xmlns="http://www.w3.org/2000/svg">
<path d="M292.126 230.939L316.166 59.1212C329.558 57.7879 348.229 57.1212 372.178 57.1212C393.171 57.1212 407.71 60.4546 415.793 67.0909C423.877 73.7273 426.712 85.697 424.209 102.939C422.399 115.394 418.84 124.697 413.561 130.818C408.283 136.97 400.41 140.545 390.004 141.515L389.763 142.758C412.566 144.576 421.826 160.03 417.513 189.091C414.858 206.364 409.248 217.97 400.652 223.939C392.055 229.909 377.849 232.909 358.032 232.909C329.136 232.939 307.177 232.273 292.126 230.939ZM319.152 211.545L354.352 211.788C367.895 211.788 377.396 209.849 382.856 205.939C388.315 202.03 391.874 194.364 393.503 182.909C395.162 170.636 393.865 162.364 389.673 158.121C385.45 153.879 376.672 151.697 363.28 151.515H327.598L319.152 211.545ZM330.312 132.333H364.517C376.401 132.333 384.967 130.333 390.185 126.364C395.403 122.394 398.812 114.909 400.471 103.939C401.949 93.4849 400.622 86.6061 396.489 83.2728C392.357 79.9697 383.851 78.3031 370.972 78.3031H337.762L330.312 132.333Z" fill="#F59E0B"/>
<path d="M532.071 109.424H557.106C548.178 148.94 536.535 182.394 522.147 209.788C509.268 234.364 496.479 251.788 483.841 262.091C471.202 272.394 456.121 279.03 438.597 282L434.132 264.818C444.72 262.333 453.949 258.606 461.882 253.606C469.815 248.637 477.416 241.061 484.685 230.94H473.525C469.724 230.94 466.497 229.909 463.873 227.818C461.219 225.758 459.56 222.879 458.926 219.212L435.641 109.394H460.947L479.286 207.758C479.769 210.576 481.428 212 484.233 212H496.388C497.052 210.849 497.957 209.121 499.103 206.909C500.249 204.667 501.003 203.212 501.335 202.546C515.873 172.182 526.129 141.152 532.071 109.424Z" fill="#F59E0B"/>
<path d="M606.422 128.091L596.74 196.333C595.925 202.151 596.438 206.091 598.338 208.151C600.239 210.242 604.069 211.273 609.86 211.273H627.958L628.953 229.939C621.684 232.091 612.273 233.182 600.691 233.182C589.953 233.182 582.231 230.182 577.526 224.212C572.821 218.242 571.192 209.697 572.7 198.576L582.623 128.091H560.575L562.807 110.666L585.368 109.424L590.586 73.818H614.144L609.197 109.424H646.388L643.914 128.091H606.422Z" fill="#F59E0B"/>
<path d="M745.985 210.788L747.463 226.97C735.73 231.606 719.11 233.94 697.634 233.94C676.973 233.94 662.676 228.515 654.743 217.637C646.81 206.758 644.337 189.879 647.293 166.97C650.429 143.576 656.824 127.576 666.506 119.03C676.158 110.485 692.084 106.212 714.224 106.212C733.075 106.212 745.864 109.546 752.651 116.182C759.438 122.818 761.911 132.606 760.101 145.576C758.11 157.364 753.496 165.879 746.226 171.091C738.957 176.334 727.797 179.515 712.776 180.667L670.88 184.394C670.699 195.849 673.112 203.606 678.059 207.667C683.005 211.727 690.787 213.758 701.344 213.758C712.595 213.758 727.465 212.788 745.985 210.788ZM672.358 166.455L712.776 162.727C720.377 162.243 725.927 160.606 729.396 157.879C732.864 155.152 735.096 150.364 736.092 143.546C737.087 135.758 735.79 130.94 732.261 129.091C728.702 127.273 721.493 126.364 710.574 126.364C698.026 126.364 689.128 128.97 683.94 134.212C678.692 139.424 674.831 150.182 672.358 166.455Z" fill="#F59E0B"/>
<path d="M815.631 56.6364L808.935 106.939C807.457 117.909 805.285 127.182 802.48 134.818C810.413 126.848 819.13 120.121 828.631 114.636C838.132 109.152 846.94 106.424 855.023 106.424C864.615 106.424 871.975 108.212 877.072 111.788C882.2 115.364 885.819 122 887.991 131.697C890.133 141.394 889.801 154.727 886.996 171.667C885.186 185.273 882.622 196.364 879.304 204.909C875.986 213.455 871.703 219.818 866.425 223.97C861.146 228.121 855.777 230.848 850.318 232.182C844.858 233.515 837.83 234.182 829.264 234.182C809.116 234.182 788.786 231.182 768.275 225.212L791.832 56.6364H815.631V56.6364ZM801.997 153.758L793.823 213.515C805.707 214 814.545 214.273 820.336 214.273C836.021 214.273 846.367 211.758 851.313 206.667C856.26 201.606 860.06 189.364 862.715 169.939C865.037 151.848 865.279 140.212 863.469 135.061C861.659 129.909 856.954 127.333 849.353 127.333C837.619 127.364 821.844 136.152 801.997 153.758Z" fill="#F59E0B"/>
<path d="M1006.5 230.94H987.649L988.644 208.515C974.106 225.455 956.762 233.909 936.583 233.909C921.864 233.909 911.97 229.091 906.843 219.455C901.715 209.818 900.81 192.879 904.128 168.667C905.938 155.212 908.502 144.212 911.82 135.667C915.138 127.121 919.511 120.758 924.971 116.606C930.43 112.455 936.04 109.667 941.832 108.273C947.623 106.879 955.043 106.152 964.152 106.152C983.818 106.152 1003.57 108.303 1023.39 112.637L1006.5 230.94ZM988.403 187.122L997.09 126.849C981.888 126.515 973.382 126.364 971.572 126.364C962.976 126.364 956.46 126.788 951.996 127.606C947.532 128.425 943.611 130.546 940.233 133.97C936.855 137.364 934.351 141.728 932.783 147.031C931.214 152.334 929.676 160.152 928.198 170.425C925.875 188.515 925.604 200.152 927.323 205.273C929.073 210.425 933.808 213 941.59 213C949.191 213 956.611 210.879 963.911 206.637C971.12 202.455 979.324 195.94 988.403 187.122Z" fill="#F59E0B"/>
<path d="M1068.97 109.425L1067.73 135.576C1089.54 116 1108.63 106.182 1124.98 106.182C1135.24 106.182 1142.99 109.122 1148.27 115.031C1153.54 120.94 1155.35 129.364 1153.73 140.303L1140.85 230.94H1117.05L1128.69 146.273C1129.69 138.637 1129.38 133.455 1127.82 130.697C1126.25 127.97 1122.81 126.576 1117.53 126.576C1110.74 126.576 1103.69 128.667 1096.33 132.788C1088.97 136.94 1079.34 143.758 1067.46 153.212L1056.81 230.909H1032.77L1049.87 109.394H1068.97V109.425Z" fill="#F59E0B"/>
<path d="M1259.32 109.424H1283.88C1276.94 131.182 1263.55 149.182 1243.73 163.455C1246.2 167.273 1248.68 172.091 1251.18 177.909L1274.74 230.939H1248.95L1225.66 174.909C1218.21 178.909 1208.65 183.545 1196.92 188.848L1190.73 230.939H1166.94L1191.22 56.6364H1215.26L1204.34 138.303C1202.86 148.273 1200.21 158.212 1196.41 168.182C1212.09 160.697 1225.69 151.97 1237.19 141.909C1248.62 131.879 1256.01 121.061 1259.32 109.424Z" fill="#F59E0B"/>
<path d="M177.719 57.6063H58.968V176.909H177.719V57.6063Z" fill="#F59E0B"/>
<path d="M58.5761 0H0.814453V57.2121H58.5761V0Z" fill="#F59E0B"/>
<path d="M234.244 0H177.297V57.2121H234.244V0Z" fill="#F59E0B"/>
<path d="M292.126 230.939L316.166 59.1212C329.558 57.7879 348.229 57.1212 372.178 57.1212C393.171 57.1212 407.71 60.4546 415.793 67.0909C423.877 73.7273 426.712 85.697 424.209 102.939C422.399 115.394 418.84 124.697 413.561 130.818C408.283 136.97 400.41 140.545 390.004 141.515L389.763 142.758C412.566 144.576 421.826 160.03 417.513 189.091C414.858 206.364 409.248 217.97 400.652 223.939C392.055 229.909 377.849 232.909 358.032 232.909C329.136 232.939 307.177 232.273 292.126 230.939ZM319.152 211.545L354.352 211.788C367.895 211.788 377.396 209.849 382.856 205.939C388.315 202.03 391.874 194.364 393.503 182.909C395.162 170.636 393.865 162.364 389.673 158.121C385.45 153.879 376.672 151.697 363.28 151.515H327.598L319.152 211.545ZM330.312 132.333H364.517C376.401 132.333 384.967 130.333 390.185 126.364C395.403 122.394 398.812 114.909 400.471 103.939C401.949 93.4849 400.622 86.6061 396.489 83.2728C392.357 79.9697 383.851 78.3031 370.972 78.3031H337.762L330.312 132.333Z" fill="#F59E0B"/>
<path d="M532.071 109.424H557.106C548.178 148.94 536.535 182.394 522.147 209.788C509.268 234.364 496.479 251.788 483.841 262.091C471.202 272.394 456.121 279.03 438.597 282L434.132 264.818C444.72 262.333 453.949 258.606 461.882 253.606C469.815 248.637 477.416 241.061 484.685 230.94H473.525C469.724 230.94 466.497 229.909 463.873 227.818C461.219 225.758 459.56 222.879 458.926 219.212L435.641 109.394H460.947L479.286 207.758C479.769 210.576 481.428 212 484.233 212H496.388C497.052 210.849 497.957 209.121 499.103 206.909C500.249 204.667 501.003 203.212 501.335 202.546C515.873 172.182 526.129 141.152 532.071 109.424Z" fill="#F59E0B"/>
<path d="M606.422 128.091L596.74 196.333C595.925 202.151 596.438 206.091 598.338 208.151C600.239 210.242 604.069 211.273 609.86 211.273H627.958L628.953 229.939C621.684 232.091 612.273 233.182 600.691 233.182C589.953 233.182 582.231 230.182 577.526 224.212C572.821 218.242 571.192 209.697 572.7 198.576L582.623 128.091H560.575L562.807 110.666L585.368 109.424L590.586 73.818H614.144L609.197 109.424H646.388L643.914 128.091H606.422Z" fill="#F59E0B"/>
<path d="M745.985 210.788L747.463 226.97C735.73 231.606 719.11 233.94 697.634 233.94C676.973 233.94 662.676 228.515 654.743 217.637C646.81 206.758 644.337 189.879 647.293 166.97C650.429 143.576 656.824 127.576 666.506 119.03C676.158 110.485 692.084 106.212 714.224 106.212C733.075 106.212 745.864 109.546 752.651 116.182C759.438 122.818 761.911 132.606 760.101 145.576C758.11 157.364 753.496 165.879 746.226 171.091C738.957 176.334 727.797 179.515 712.776 180.667L670.88 184.394C670.699 195.849 673.112 203.606 678.059 207.667C683.005 211.727 690.787 213.758 701.344 213.758C712.595 213.758 727.465 212.788 745.985 210.788ZM672.358 166.455L712.776 162.727C720.377 162.243 725.927 160.606 729.396 157.879C732.864 155.152 735.096 150.364 736.092 143.546C737.087 135.758 735.79 130.94 732.261 129.091C728.702 127.273 721.493 126.364 710.574 126.364C698.026 126.364 689.128 128.97 683.94 134.212C678.692 139.424 674.831 150.182 672.358 166.455Z" fill="#F59E0B"/>
<path d="M815.631 56.6364L808.935 106.939C807.457 117.909 805.285 127.182 802.48 134.818C810.413 126.848 819.13 120.121 828.631 114.636C838.132 109.152 846.94 106.424 855.023 106.424C864.615 106.424 871.975 108.212 877.072 111.788C882.2 115.364 885.819 122 887.991 131.697C890.133 141.394 889.801 154.727 886.996 171.667C885.186 185.273 882.622 196.364 879.304 204.909C875.986 213.455 871.703 219.818 866.425 223.97C861.146 228.121 855.777 230.848 850.318 232.182C844.858 233.515 837.83 234.182 829.264 234.182C809.116 234.182 788.786 231.182 768.275 225.212L791.832 56.6364H815.631V56.6364ZM801.997 153.758L793.823 213.515C805.707 214 814.545 214.273 820.336 214.273C836.021 214.273 846.367 211.758 851.313 206.667C856.26 201.606 860.06 189.364 862.715 169.939C865.037 151.848 865.279 140.212 863.469 135.061C861.659 129.909 856.954 127.333 849.353 127.333C837.619 127.364 821.844 136.152 801.997 153.758Z" fill="#F59E0B"/>
<path d="M1006.5 230.94H987.649L988.644 208.515C974.106 225.455 956.762 233.909 936.583 233.909C921.864 233.909 911.97 229.091 906.843 219.455C901.715 209.818 900.81 192.879 904.128 168.667C905.938 155.212 908.502 144.212 911.82 135.667C915.138 127.121 919.511 120.758 924.971 116.606C930.43 112.455 936.04 109.667 941.832 108.273C947.623 106.879 955.043 106.152 964.152 106.152C983.818 106.152 1003.57 108.303 1023.39 112.637L1006.5 230.94ZM988.403 187.122L997.09 126.849C981.888 126.515 973.382 126.364 971.572 126.364C962.976 126.364 956.46 126.788 951.996 127.606C947.532 128.425 943.611 130.546 940.233 133.97C936.855 137.364 934.351 141.728 932.783 147.031C931.214 152.334 929.676 160.152 928.198 170.425C925.875 188.515 925.604 200.152 927.323 205.273C929.073 210.425 933.808 213 941.59 213C949.191 213 956.611 210.879 963.911 206.637C971.12 202.455 979.324 195.94 988.403 187.122Z" fill="#F59E0B"/>
<path d="M1068.97 109.425L1067.73 135.576C1089.54 116 1108.63 106.182 1124.98 106.182C1135.24 106.182 1142.99 109.122 1148.27 115.031C1153.54 120.94 1155.35 129.364 1153.73 140.303L1140.85 230.94H1117.05L1128.69 146.273C1129.69 138.637 1129.38 133.455 1127.82 130.697C1126.25 127.97 1122.81 126.576 1117.53 126.576C1110.74 126.576 1103.69 128.667 1096.33 132.788C1088.97 136.94 1079.34 143.758 1067.46 153.212L1056.81 230.909H1032.77L1049.87 109.394H1068.97V109.425Z" fill="#F59E0B"/>
<path d="M1259.32 109.424H1283.88C1276.94 131.182 1263.55 149.182 1243.73 163.455C1246.2 167.273 1248.68 172.091 1251.18 177.909L1274.74 230.939H1248.95L1225.66 174.909C1218.21 178.909 1208.65 183.545 1196.92 188.848L1190.73 230.939H1166.94L1191.22 56.6364H1215.26L1204.34 138.303C1202.86 148.273 1200.21 158.212 1196.41 168.182C1212.09 160.697 1225.69 151.97 1237.19 141.909C1248.62 131.879 1256.01 121.061 1259.32 109.424Z" fill="#F59E0B"/>
<path d="M118.751 176.515H0V236.181H118.751V176.515Z" fill="#F59E0B"/>
<path d="M177.719 57.6063H58.9683V176.909H177.719V57.6063Z" fill="#F59E0B"/>
<path d="M58.5761 0H0.814453V57.2121H58.5761V0Z" fill="#F59E0B"/>
<path d="M234.244 0H177.297V57.2121H234.244V0Z" fill="#F59E0B"/>
</svg>
